<svg version="1.1" xmlns="http://www.w3.org/2000/svg" width="24" height="24" xmlns:xlink="http://www.w3.org/1999/xlink" viewBox="0 0 24 24">
  <g>
    <path d="M11.9993 6.52661C11.4352 6.52661 11.0039 6.09527 11.0039 5.53121V3.70633C11.0039 3.14227 11.4352 2.71094 11.9993 2.71094C12.5634 2.71094 12.9947 3.14227 12.9947 3.70633V5.53121C12.9947 6.06209 12.5634 6.52661 11.9993 6.52661Z"/>
    <path style="opacity:.918" transform="rotate(330,12,12)" d="M11.9993 6.52661C11.4352 6.52661 11.0039 6.09527 11.0039 5.53121V3.70633C11.0039 3.14227 11.4352 2.71094 11.9993 2.71094C12.5634 2.71094 12.9947 3.14227 12.9947 3.70633V5.53121C12.9947 6.06209 12.5634 6.52661 11.9993 6.52661Z"/>
    <path style="opacity:.836" transform="rotate(300,12,12)" d="M11.9993 6.52661C11.4352 6.52661 11.0039 6.09527 11.0039 5.53121V3.70633C11.0039 3.14227 11.4352 2.71094 11.9993 2.71094C12.5634 2.71094 12.9947 3.14227 12.9947 3.70633V5.53121C12.9947 6.06209 12.5634 6.52661 11.9993 6.52661Z"/>
    <path style="opacity:.755" transform="rotate(270,12,12)" d="M11.9993 6.52661C11.4352 6.52661 11.0039 6.09527 11.0039 5.53121V3.70633C11.0039 3.14227 11.4352 2.71094 11.9993 2.71094C12.5634 2.71094 12.9947 3.14227 12.9947 3.70633V5.53121C12.9947 6.06209 12.5634 6.52661 11.9993 6.52661Z"/>
    <path style="opacity:.673" transform="rotate(240,12,12)" d="M11.9993 6.52661C11.4352 6.52661 11.0039 6.09527 11.0039 5.53121V3.70633C11.0039 3.14227 11.4352 2.71094 11.9993 2.71094C12.5634 2.71094 12.9947 3.14227 12.9947 3.70633V5.53121C12.9947 6.06209 12.5634 6.52661 11.9993 6.52661Z"/>
    <path style="opacity:.591" transform="rotate(210,12,12)" d="M11.9993 6.52661C11.4352 6.52661 11.0039 6.09527 11.0039 5.53121V3.70633C11.0039 3.14227 11.4352 2.71094 11.9993 2.71094C12.5634 2.71094 12.9947 3.14227 12.9947 3.70633V5.53121C12.9947 6.06209 12.5634 6.52661 11.9993 6.52661Z"/>
    <path style="opacity:.509" transform="rotate(180,12,12)" d="M11.9993 6.52661C11.4352 6.52661 11.0039 6.09527 11.0039 5.53121V3.70633C11.0039 3.14227 11.4352 2.71094 11.9993 2.71094C12.5634 2.71094 12.9947 3.14227 12.9947 3.70633V5.53121C12.9947 6.06209 12.5634 6.52661 11.9993 6.52661Z"/>
    <path style="opacity:.427" transform="rotate(150,12,12)" d="M11.9993 6.52661C11.4352 6.52661 11.0039 6.09527 11.0039 5.53121V3.70633C11.0039 3.14227 11.4352 2.71094 11.9993 2.71094C12.5634 2.71094 12.9947 3.14227 12.9947 3.70633V5.53121C12.9947 6.06209 12.5634 6.52661 11.9993 6.52661Z"/>
    <path style="opacity:.345" transform="rotate(120,12,12)" d="M11.9993 6.52661C11.4352 6.52661 11.0039 6.09527 11.0039 5.53121V3.70633C11.0039 3.14227 11.4352 2.71094 11.9993 2.71094C12.5634 2.71094 12.9947 3.14227 12.9947 3.70633V5.53121C12.9947 6.06209 12.5634 6.52661 11.9993 6.52661Z"/>
    <path style="opacity:.264" transform="rotate(90,12,12)" d="M11.9993 6.52661C11.4352 6.52661 11.0039 6.09527 11.0039 5.53121V3.70633C11.0039 3.14227 11.4352 2.71094 11.9993 2.71094C12.5634 2.71094 12.9947 3.14227 12.9947 3.70633V5.53121C12.9947 6.06209 12.5634 6.52661 11.9993 6.52661Z"/>
    <path style="opacity:.182" transform="rotate(60,12,12)" d="M11.9993 6.52661C11.4352 6.52661 11.0039 6.09527 11.0039 5.53121V3.70633C11.0039 3.14227 11.4352 2.71094 11.9993 2.71094C12.5634 2.71094 12.9947 3.14227 12.9947 3.70633V5.53121C12.9947 6.06209 12.5634 6.52661 11.9993 6.52661Z"/>
    <path style="opacity:.1" transform="rotate(30,12,12)" d="M11.9993 6.52661C11.4352 6.52661 11.0039 6.09527 11.0039 5.53121V3.70633C11.0039 3.14227 11.4352 2.71094 11.9993 2.71094C12.5634 2.71094 12.9947 3.14227 12.9947 3.70633V5.53121C12.9947 6.06209 12.5634 6.52661 11.9993 6.52661Z"/>
    <animateTransform 
      attributeType="xml"
      attributeName="transform"
      type="rotate"
      dur="1s"
      repeatCount="indefinite"
      calcMode="discrete"
      values="0 12 12; 30 12 12; 60 12 12; 90 12 12; 120 12 12; 150 12 12; 180 12 12; 210 12 12; 240 12 12; 270 12 12; 300 12 12; 330 12 12"
    />
  </g>
</svg>